# xmcd CD database file
#
# Track frame offsets:
#	150
#	32386
#	52975
#	73950
#	94605
#	118092
#	138615
#	165635
#	182140
#	206256
#	230313
#
# Disc length: 3539 seconds
#
# Revision: 0
# Processed by: cddbd v1.5.2PL0 Copyright (c) Steve Scherf et al.
# Submitted via: CDex 1.51
#
DISCID=920dd10b
DTITLE=Patricia Barber - Mythologies
DYEAR=2006
DGENRE=Jazz
TTITLE0=The Moon
TTITLE1=Morpheus
TTITLE2=Pygmalion
TTITLE3=Hunger
TTITLE4=Icarus
TTITLE5=Orpheus/Sonnet
TTITLE6=Persephone
TTITLE7=Narcissus
TTITLE8=Whiteworld/Oedipus
TTITLE9=Phaeton
TTITLE10=The Hours
EXTD=YEAR: 2006
EXTT0=
EXTT1=
EXTT2=
EXTT3=
EXTT4=
EXTT5=
EXTT6=
EXTT7=
EXTT8=
EXTT9=
EXTT10=
PLAYORDER=
